<svg width="35" height="26" viewBox="0 0 35 26" fill="none" xmlns="http://www.w3.org/2000/svg">
<g clip-path="url(#clip0_307_134)">
<path d="M33 0.5H2C1.17157 0.5 0.5 1.17157 0.5 2V24C0.5 24.8284 1.17157 25.5 2 25.5H33C33.8284 25.5 34.5 24.8284 34.5 24V2C34.5 1.17157 33.8284 0.5 33 0.5Z" stroke="black" stroke-opacity="0.26"/>
<path d="M25.8751 20.8256C25.8751 20.8256 19.5943 21 17.5 21C15.4057 21 9.12489 20.8256 9.12489 20.8256C7.50273 20.8256 6.17546 19.5062 6.17546 17.8937C6.17546 17.8937 6 14.2251 6 13C6 11.7749 6.17546 8.10629 6.17546 8.10629C6.17546 6.49379 7.50273 5.17442 9.12489 5.17442C9.12489 5.17442 15.4057 5 17.5 5C19.5943 5 25.8751 5.17442 25.8751 5.17442C27.4973 5.17442 28.8245 6.49379 28.8245 8.10629C28.8245 8.10629 29 11.7718 29 13C29 14.2283 28.8245 17.8937 28.8245 17.8937C28.8245 19.5062 27.4973 20.8256 25.8751 20.8256Z" fill="#FF0000"/>
<path fill-rule="evenodd" clip-rule="evenodd" d="M15.2972 16.5749V9.42508L21.108 12.9994L15.2972 16.5749Z" fill="white"/>
</g>
<defs>
<clipPath id="clip0_307_134">
<rect width="35" height="26" fill="white"/>
</clipPath>
</defs>
</svg>
