<svg width="35" height="26" viewBox="0 0 35 26" fill="none" xmlns="http://www.w3.org/2000/svg">
<path d="M33 0.5H2C1.17157 0.5 0.5 1.17157 0.5 2V24C0.5 24.8284 1.17157 25.5 2 25.5H33C33.8284 25.5 34.5 24.8284 34.5 24V2C34.5 1.17157 33.8284 0.5 33 0.5Z" stroke="black" stroke-opacity="0.26"/>
<rect x="20" y="7" width="10" height="3" fill="#5E3FBE"/>
<rect x="20" y="12" width="13" height="3" fill="#E5DAFB"/>
<rect x="20" y="17" width="7" height="3" fill="#F4F0FD"/>
<path d="M10.5006 13.4994L10.5006 6C14.6424 6 18 9.35758 18 13.4994C18 14.8158 17.6535 16.109 16.9953 17.2491L10.5006 13.4994Z" fill="#5E3FBE"/>
<path d="M10.5006 13.4994L16.9953 17.2491C14.9244 20.836 10.3378 22.0649 6.75095 19.994L10.5006 13.4994Z" fill="#F4F0FD"/>
<path d="M10.5006 13.4994L6.75094 19.994C3.16404 17.9231 1.93508 13.3366 4.00598 9.74969C5.34561 7.42937 7.82136 6 10.5006 6V13.4994Z" fill="#E5DAFB"/>
</svg>
