<svg width="35" height="26" viewBox="0 0 35 26" fill="none" xmlns="http://www.w3.org/2000/svg">
	<g clip-path="url(#clip0_101_5)">
		<path d="M33 0.5H2C1.17157 0.5 0.5 1.17157 0.5 2V24C0.5 24.8284 1.17157 25.5 2 25.5H33C33.8284 25.5 34.5 24.8284 34.5 24V2C34.5 1.17157 33.8284 0.5 33 0.5Z" stroke="black" stroke-opacity="0.26" />
		<mask id="path-2-inside-1_101_5" fill="white">
			<path d="M14.2383 22.0176C14.0201 22.5245 14.2528 23.1174 14.7785 23.2853C15.8834 23.6382 17.0429 23.8 18.2069 23.761C19.7044 23.7109 21.1724 23.3299 22.5057 22.6453C23.839 21.9607 25.0047 20.9894 25.9194 19.8009C26.8341 18.6124 27.4752 17.2361 27.7968 15.7705C28.1184 14.3049 28.1125 12.7863 27.7795 11.3233C27.4466 9.86022 26.7949 8.48897 25.871 7.30764C24.9471 6.1263 23.7738 5.1641 22.4352 4.48989C21.3952 3.96602 20.2752 3.62609 19.1248 3.48249C18.5767 3.41407 18.1165 3.85527 18.1023 4.4074L17.8723 13.3928C17.8691 13.5201 17.8415 13.6456 17.7912 13.7625L14.2383 22.0176Z" />
		</mask>
		<path d="M14.2383 22.0176C14.0201 22.5245 14.2528 23.1174 14.7785 23.2853C15.8834 23.6382 17.0429 23.8 18.2069 23.761C19.7044 23.7109 21.1724 23.3299 22.5057 22.6453C23.839 21.9607 25.0047 20.9894 25.9194 19.8009C26.8341 18.6124 27.4752 17.2361 27.7968 15.7705C28.1184 14.3049 28.1125 12.7863 27.7795 11.3233C27.4466 9.86022 26.7949 8.48897 25.871 7.30764C24.9471 6.1263 23.7738 5.1641 22.4352 4.48989C21.3952 3.96602 20.2752 3.62609 19.1248 3.48249C18.5767 3.41407 18.1165 3.85527 18.1023 4.4074L17.8723 13.3928C17.8691 13.5201 17.8415 13.6456 17.7912 13.7625L14.2383 22.0176Z" stroke="#021752" stroke-width="2" mask="url(#path-2-inside-1_101_5)" />
		<mask id="path-3-inside-2_101_5" fill="white">
			<path d="M10.1868 7.72406C9.7449 7.39186 9.1126 7.47907 8.82607 7.95185C8.21958 8.95256 7.78864 10.0527 7.55462 11.2048C7.25397 12.6848 7.28589 14.2133 7.64807 15.6794C8.01025 17.1456 8.69362 18.5127 9.64864 19.6816C10.3919 20.5913 11.2852 21.3633 12.2875 21.9654C12.7613 22.25 13.3612 22.0324 13.5973 21.5326L17.1688 13.9712C17.3715 13.5422 17.2447 13.0299 16.8655 12.7448L10.1868 7.72406Z" />
		</mask>
		<path d="M10.1868 7.72406C9.7449 7.39186 9.1126 7.47907 8.82607 7.95185C8.21958 8.95256 7.78864 10.0527 7.55462 11.2048C7.25397 12.6848 7.28589 14.2133 7.64807 15.6794C8.01025 17.1456 8.69362 18.5127 9.64864 19.6816C10.3919 20.5913 11.2852 21.3633 12.2875 21.9654C12.7613 22.25 13.3612 22.0324 13.5973 21.5326L17.1688 13.9712C17.3715 13.5422 17.2447 13.0299 16.8655 12.7448L10.1868 7.72406Z" stroke="#021752" stroke-width="2" mask="url(#path-3-inside-2_101_5)" />
		<path d="M7.70112 11.6546L12.4337 9.72365" stroke="#021752" stroke-width="0.5" stroke-linejoin="round" />
		<path d="M7.8764 14.2877L14.5371 11.3035" stroke="#021752" stroke-width="0.5" stroke-linejoin="round" />
		<path d="M8.40225 16.5696L16.4652 12.8833" stroke="#021752" stroke-width="0.5" stroke-linejoin="round" />
		<path d="M9.10337 18.6761L16.1146 15.5164" stroke="#021752" stroke-width="0.5" stroke-linejoin="round" />
		<path d="M10.5056 20.4314L14.5371 18.6761" stroke="#021752" stroke-width="0.5" stroke-linejoin="round" />
		<mask id="path-9-inside-3_101_5" fill="white">
			<path d="M17.1663 3C17.1663 2.44772 16.7175 1.9949 16.1679 2.04921C15.0201 2.16265 13.8974 2.47113 12.8488 2.96373C11.7996 3.45665 10.8444 4.12455 10.0232 4.93665C9.6309 5.32459 9.69213 5.95839 10.1161 6.3114L15.5264 10.8159C16.1778 11.3582 17.1663 10.895 17.1663 10.0474L17.1663 3Z" />
		</mask>
		<path d="M17.1663 3C17.1663 2.44772 16.7175 1.9949 16.1679 2.04921C15.0201 2.16265 13.8974 2.47113 12.8488 2.96373C11.7996 3.45665 10.8444 4.12455 10.0232 4.93665C9.6309 5.32459 9.69213 5.95839 10.1161 6.3114L15.5264 10.8159C16.1778 11.3582 17.1663 10.895 17.1663 10.0474L17.1663 3Z" stroke="#021752" stroke-width="2" mask="url(#path-9-inside-3_101_5)" />
	</g>
	<defs>
		<clipPath id="clip0_101_5">
			<rect width="35" height="26" fill="white" />
		</clipPath>
	</defs>
</svg>
