<svg width="35" height="26" viewBox="0 0 35 26" fill="none" xmlns="http://www.w3.org/2000/svg">
    <rect x="0.5" y="0.5" width="34" height="25" rx="1.5" stroke="black" stroke-opacity="0.26"/>
    <path d="M8.64746 17.1875C8.47754 17.3896 8.27393 17.5522 8.03662 17.6753C7.80225 17.7983 7.54443 17.8599 7.26318 17.8599C6.89404 17.8599 6.57178 17.769 6.29639 17.5874C6.02393 17.4058 5.81299 17.1509 5.66357 16.8228C5.51416 16.4917 5.43945 16.127 5.43945 15.7285C5.43945 15.3008 5.52002 14.9155 5.68115 14.5728C5.84521 14.23 6.07666 13.9678 6.37549 13.7861C6.67432 13.6045 7.02295 13.5137 7.42139 13.5137C8.0542 13.5137 8.55225 13.751 8.91553 14.2256C9.28174 14.6973 9.46484 15.3418 9.46484 16.1592V16.3965C9.46484 17.6416 9.21875 18.5513 8.72656 19.1255C8.23438 19.6968 7.4917 19.9897 6.49854 20.0044H6.34033V19.3188H6.51172C7.18262 19.3071 7.69824 19.1328 8.05859 18.7959C8.41895 18.4561 8.61523 17.9199 8.64746 17.1875ZM7.39502 17.1875C7.66748 17.1875 7.91797 17.104 8.14648 16.937C8.37793 16.77 8.54639 16.5635 8.65186 16.3174V15.9922C8.65186 15.459 8.53613 15.0254 8.30469 14.6914C8.07324 14.3574 7.78027 14.1904 7.42578 14.1904C7.06836 14.1904 6.78125 14.3281 6.56445 14.6035C6.34766 14.876 6.23926 15.2363 6.23926 15.6846C6.23926 16.1211 6.34326 16.4814 6.55127 16.7656C6.76221 17.0469 7.04346 17.1875 7.39502 17.1875ZM10.6865 19.5737C10.6865 19.4331 10.7275 19.3159 10.8096 19.2222C10.8945 19.1284 11.0205 19.0815 11.1875 19.0815C11.3545 19.0815 11.4805 19.1284 11.5654 19.2222C11.6533 19.3159 11.6973 19.4331 11.6973 19.5737C11.6973 19.7085 11.6533 19.8213 11.5654 19.9121C11.4805 20.0029 11.3545 20.0483 11.1875 20.0483C11.0205 20.0483 10.8945 20.0029 10.8096 19.9121C10.7275 19.8213 10.6865 19.7085 10.6865 19.5737ZM16.0742 17.1875C15.9043 17.3896 15.7007 17.5522 15.4634 17.6753C15.229 17.7983 14.9712 17.8599 14.6899 17.8599C14.3208 17.8599 13.9985 17.769 13.7231 17.5874C13.4507 17.4058 13.2397 17.1509 13.0903 16.8228C12.9409 16.4917 12.8662 16.127 12.8662 15.7285C12.8662 15.3008 12.9468 14.9155 13.1079 14.5728C13.272 14.23 13.5034 13.9678 13.8022 13.7861C14.1011 13.6045 14.4497 13.5137 14.8481 13.5137C15.481 13.5137 15.979 13.751 16.3423 14.2256C16.7085 14.6973 16.8916 15.3418 16.8916 16.1592V16.3965C16.8916 17.6416 16.6455 18.5513 16.1533 19.1255C15.6611 19.6968 14.9185 19.9897 13.9253 20.0044H13.7671V19.3188H13.9385C14.6094 19.3071 15.125 19.1328 15.4854 18.7959C15.8457 18.4561 16.042 17.9199 16.0742 17.1875ZM14.8218 17.1875C15.0942 17.1875 15.3447 17.104 15.5732 16.937C15.8047 16.77 15.9731 16.5635 16.0786 16.3174V15.9922C16.0786 15.459 15.9629 15.0254 15.7314 14.6914C15.5 14.3574 15.207 14.1904 14.8525 14.1904C14.4951 14.1904 14.208 14.3281 13.9912 14.6035C13.7744 14.876 13.666 15.2363 13.666 15.6846C13.666 16.1211 13.77 16.4814 13.978 16.7656C14.189 17.0469 14.4702 17.1875 14.8218 17.1875ZM20.6841 20H19.8667V14.5815L18.2275 15.1836V14.4453L20.5566 13.5708H20.6841V20ZM24.248 16.4053H24.8589C25.2427 16.3994 25.5444 16.2983 25.7642 16.1021C25.9839 15.9058 26.0938 15.6406 26.0938 15.3066C26.0938 14.5566 25.7202 14.1816 24.9731 14.1816C24.6216 14.1816 24.3403 14.2827 24.1294 14.4849C23.9214 14.6841 23.8174 14.9492 23.8174 15.2803H23.0044C23.0044 14.7734 23.189 14.353 23.5581 14.019C23.9302 13.6821 24.4019 13.5137 24.9731 13.5137C25.5767 13.5137 26.0498 13.6733 26.3926 13.9927C26.7354 14.312 26.9067 14.7559 26.9067 15.3242C26.9067 15.6025 26.8159 15.8721 26.6343 16.1328C26.4556 16.3936 26.2109 16.5884 25.9004 16.7173C26.252 16.8286 26.5229 17.0132 26.7134 17.271C26.9067 17.5288 27.0034 17.8438 27.0034 18.2158C27.0034 18.79 26.8159 19.2456 26.4409 19.5825C26.0659 19.9194 25.5781 20.0879 24.9775 20.0879C24.377 20.0879 23.8877 19.9253 23.5098 19.6001C23.1348 19.2749 22.9473 18.8457 22.9473 18.3125H23.7646C23.7646 18.6494 23.8745 18.9189 24.0942 19.1211C24.314 19.3232 24.6084 19.4243 24.9775 19.4243C25.3701 19.4243 25.6704 19.3218 25.8784 19.1167C26.0864 18.9116 26.1904 18.6172 26.1904 18.2334C26.1904 17.8613 26.0762 17.5757 25.8477 17.3765C25.6191 17.1772 25.2896 17.0747 24.8589 17.0688H24.248V16.4053Z" fill="black"/>
    <path d="M6.29492 5.46484H5.38086V8H5.00781V5.46484H4.0957V5.15625H6.29492V5.46484ZM6.36914 6.92383C6.36914 6.7168 6.40951 6.5306 6.49023 6.36523C6.57227 6.19987 6.68555 6.07227 6.83008 5.98242C6.97591 5.89258 7.14193 5.84766 7.32812 5.84766C7.61589 5.84766 7.84831 5.94727 8.02539 6.14648C8.20378 6.3457 8.29297 6.61068 8.29297 6.94141V6.9668C8.29297 7.17253 8.25326 7.35742 8.17383 7.52148C8.0957 7.68424 7.98307 7.8112 7.83594 7.90234C7.6901 7.99349 7.52214 8.03906 7.33203 8.03906C7.04557 8.03906 6.81315 7.93945 6.63477 7.74023C6.45768 7.54102 6.36914 7.27734 6.36914 6.94922V6.92383ZM6.73242 6.9668C6.73242 7.20117 6.78646 7.38932 6.89453 7.53125C7.00391 7.67318 7.14974 7.74414 7.33203 7.74414C7.51562 7.74414 7.66146 7.67253 7.76953 7.5293C7.8776 7.38477 7.93164 7.18294 7.93164 6.92383C7.93164 6.69206 7.8763 6.50456 7.76562 6.36133C7.65625 6.2168 7.51042 6.14453 7.32812 6.14453C7.14974 6.14453 7.00586 6.21549 6.89648 6.35742C6.78711 6.49935 6.73242 6.70247 6.73242 6.9668ZM9.23633 5.375V5.88672H9.63086V6.16602H9.23633V7.47656C9.23633 7.5612 9.25391 7.625 9.28906 7.66797C9.32422 7.70964 9.38411 7.73047 9.46875 7.73047C9.51042 7.73047 9.56771 7.72266 9.64062 7.70703V8C9.54557 8.02604 9.45312 8.03906 9.36328 8.03906C9.20182 8.03906 9.08008 7.99023 8.99805 7.89258C8.91602 7.79492 8.875 7.65625 8.875 7.47656V6.16602H8.49023V5.88672H8.875V5.375H9.23633ZM11.3594 8C11.3385 7.95833 11.3216 7.88411 11.3086 7.77734C11.1406 7.95182 10.9401 8.03906 10.707 8.03906C10.4987 8.03906 10.3275 7.98047 10.1934 7.86328C10.0605 7.74479 9.99414 7.59505 9.99414 7.41406C9.99414 7.19401 10.0775 7.02344 10.2441 6.90234C10.4121 6.77995 10.6478 6.71875 10.9512 6.71875H11.3027V6.55273C11.3027 6.42643 11.265 6.32617 11.1895 6.25195C11.1139 6.17643 11.0026 6.13867 10.8555 6.13867C10.7266 6.13867 10.6185 6.17122 10.5312 6.23633C10.444 6.30143 10.4004 6.38021 10.4004 6.47266H10.0371C10.0371 6.36719 10.0742 6.26562 10.1484 6.16797C10.224 6.06901 10.3255 5.99089 10.4531 5.93359C10.582 5.8763 10.7233 5.84766 10.877 5.84766C11.1204 5.84766 11.3112 5.90885 11.4492 6.03125C11.5872 6.15234 11.6589 6.31966 11.6641 6.5332V7.50586C11.6641 7.69987 11.6888 7.85417 11.7383 7.96875V8H11.3594ZM10.7598 7.72461C10.873 7.72461 10.9805 7.69531 11.082 7.63672C11.1836 7.57812 11.2572 7.50195 11.3027 7.4082V6.97461H11.0195C10.5768 6.97461 10.3555 7.10417 10.3555 7.36328C10.3555 7.47656 10.3932 7.5651 10.4688 7.62891C10.5443 7.69271 10.6413 7.72461 10.7598 7.72461ZM12.623 8H12.2617V5H12.623V8Z" fill="black"/>
</svg>
