<svg width="35" height="26" viewBox="0 0 35 26" fill="none" xmlns="http://www.w3.org/2000/svg">
<g clip-path="url(#clip0_307_76)">
<path d="M33 0.5H2C1.17157 0.5 0.5 1.17157 0.5 2V24C0.5 24.8284 1.17157 25.5 2 25.5H33C33.8284 25.5 34.5 24.8284 34.5 24V2C34.5 1.17157 33.8284 0.5 33 0.5Z" stroke="black" stroke-opacity="0.26"/>
<path d="M14.441 8V6.08L14.651 6.29H14.021V5.9H14.927V8H14.441ZM15.8798 7.643V6.257H16.2668V7.643H15.8798ZM15.3608 7.133V6.767H16.7888V7.133H15.3608ZM17.3472 8V6.08L17.5573 6.29H16.9273V5.9H17.8333V8H17.3472ZM18.2671 6.761V6.395H19.6951V6.761H18.2671ZM18.2671 7.505V7.139H19.6951V7.505H18.2671ZM19.976 8V7.685L20.786 6.92C20.85 6.862 20.897 6.81 20.927 6.764C20.957 6.718 20.977 6.676 20.987 6.638C20.999 6.6 21.005 6.565 21.005 6.533C21.005 6.449 20.976 6.385 20.918 6.341C20.862 6.295 20.779 6.272 20.669 6.272C20.581 6.272 20.499 6.289 20.423 6.323C20.349 6.357 20.286 6.41 20.234 6.482L19.88 6.254C19.96 6.134 20.072 6.039 20.216 5.969C20.36 5.899 20.526 5.864 20.714 5.864C20.87 5.864 21.006 5.89 21.122 5.942C21.24 5.992 21.331 6.063 21.395 6.155C21.461 6.247 21.494 6.357 21.494 6.485C21.494 6.553 21.485 6.621 21.467 6.689C21.451 6.755 21.417 6.825 21.365 6.899C21.315 6.973 21.241 7.056 21.143 7.148L20.471 7.781L20.378 7.604H21.563V8H19.976Z" fill="#021752"/>
<rect x="10.25" y="2.25" width="14.5" height="21.5" rx="2.75" stroke="#021752" stroke-width="0.5"/>
<rect x="12.3929" y="4.41394" width="10.2143" height="5.27049" rx="0.75" stroke="#021752" stroke-width="0.5"/>
<rect x="12.3929" y="11.2664" width="4.14286" height="4.18852" rx="0.75" stroke="#021752" stroke-width="0.5"/>
<rect x="18.4643" y="11.2664" width="4.14286" height="4.18852" rx="0.75" stroke="#021752" stroke-width="0.5"/>
<rect x="12.3929" y="17.3975" width="4.14286" height="4.18852" rx="0.75" stroke="#021752" stroke-width="0.5"/>
<rect x="18.4643" y="17.3975" width="4.14286" height="4.18852" rx="0.75" stroke="#021752" stroke-width="0.5"/>
<path d="M13.2143 13.3607H15.7143" stroke="#021752" stroke-width="0.5" stroke-linejoin="round"/>
<path d="M13.2143 18.9508H15.7143" stroke="#021752" stroke-width="0.5" stroke-linejoin="round"/>
<path d="M13.2143 20.0328H15.7143" stroke="#021752" stroke-width="0.5" stroke-linejoin="round"/>
<path d="M19.2857 13.3607H21.7857" stroke="#021752" stroke-width="0.5" stroke-linejoin="round"/>
<path d="M20.5357 14.623V12.0984" stroke="#021752" stroke-width="0.5" stroke-linejoin="round"/>
<path d="M19.7538 18.7022L21.4043 20.3689" stroke="#021752" stroke-width="0.5" stroke-linejoin="round"/>
<path d="M19.7538 20.3689L21.4043 18.7022" stroke="#021752" stroke-width="0.5" stroke-linejoin="round"/>
</g>
<defs>
<clipPath id="clip0_307_76">
<rect width="35" height="26" fill="white"/>
</clipPath>
</defs>
</svg>
