<svg width="35" height="26" viewBox="0 0 35 26" fill="none" xmlns="http://www.w3.org/2000/svg">
<g clip-path="url(#clip0_106_2)">
<path d="M33 0.5H2C1.17157 0.5 0.5 1.17157 0.5 2V24C0.5 24.8284 1.17157 25.5 2 25.5H33C33.8284 25.5 34.5 24.8284 34.5 24V2C34.5 1.17157 33.8284 0.5 33 0.5Z" stroke="black" stroke-opacity="0.26"/>
<path d="M23.3203 18V9.67969H11.6797V18H23.3203ZM23.3203 6.32031C23.7891 6.32031 24.1797 6.48958 24.4922 6.82812C24.8307 7.14062 25 7.53125 25 8V18C25 18.4427 24.8307 18.8333 24.4922 19.1719C24.1536 19.5104 23.763 19.6797 23.3203 19.6797H11.6797C11.2109 19.6797 10.8073 19.5234 10.4688 19.2109C10.1562 18.8724 10 18.4688 10 18V8C10 7.53125 10.1562 7.14062 10.4688 6.82812C10.8073 6.48958 11.2109 6.32031 11.6797 6.32031H23.3203Z" fill="black"/>
</g>
<defs>
<clipPath id="clip0_106_2">
<rect width="35" height="26" fill="white"/>
</clipPath>
</defs>
</svg>
